<svg width="26" height="26" viewBox="0 0 26 26" fill="none" xmlns="http://www.w3.org/2000/svg">
<path d="M13.0044 26C12.758 26 12.5216 25.9144 12.3474 25.762C12.1731 25.6097 12.0752 25.403 12.0752 25.1875V23.0864L10.8748 24.1378C10.7003 24.2901 10.4637 24.3756 10.2172 24.3755C9.97061 24.3753 9.73421 24.2895 9.55998 24.1369C9.38575 23.9844 9.28797 23.7775 9.28815 23.5619C9.28832 23.3463 9.38644 23.1396 9.56091 22.9872L12.0752 20.7886V14.4073L5.75689 17.5971L4.83516 20.6034C4.77108 20.8115 4.61507 20.9889 4.40144 21.0965C4.1878 21.2041 3.93405 21.233 3.696 21.177C3.45794 21.121 3.25509 20.9845 3.13207 20.7977C3.00905 20.6109 2.97593 20.389 3.04 20.1809L3.48043 18.7476L1.39909 19.7974C1.18579 19.9034 0.933185 19.9314 0.696394 19.8752C0.459602 19.819 0.25785 19.6831 0.135166 19.4973C0.0124819 19.3115 -0.0211749 19.0908 0.0415403 18.8834C0.104256 18.676 0.258251 18.4986 0.469922 18.3901L2.55126 17.3404L0.90849 16.9552C0.790618 16.9275 0.68015 16.8797 0.583391 16.8147C0.486633 16.7496 0.40548 16.6685 0.344565 16.576C0.283651 16.4835 0.244167 16.3814 0.22837 16.2756C0.212573 16.1697 0.220771 16.0622 0.252497 15.9591C0.284222 15.8561 0.338853 15.7595 0.413271 15.6748C0.487689 15.5902 0.580436 15.5193 0.686216 15.466C0.791997 15.4127 0.90874 15.3782 1.02978 15.3644C1.15082 15.3506 1.27379 15.3578 1.39166 15.3855L4.82586 16.1899L11.1461 13L4.82772 9.81013L1.3898 10.6145C1.1533 10.666 0.903101 10.6343 0.693145 10.526C0.483189 10.4177 0.330286 10.2417 0.267392 10.0358C0.204499 9.82985 0.236653 9.61057 0.356924 9.4252C0.477194 9.23982 0.67595 9.10318 0.910348 9.04475L2.55126 8.65963L0.469922 7.60988C0.363397 7.55691 0.269904 7.48605 0.194826 7.40137C0.119747 7.31668 0.0645665 7.21985 0.0324602 7.11644C0.000353941 7.01303 -0.00804372 6.90509 0.00775085 6.79883C0.0235454 6.69257 0.0632203 6.59009 0.124491 6.4973C0.185762 6.4045 0.267418 6.32322 0.364759 6.25813C0.4621 6.19304 0.573203 6.14543 0.691672 6.11804C0.81014 6.09066 0.933634 6.08403 1.05504 6.09855C1.17645 6.11306 1.29338 6.14843 1.39909 6.20262L3.48043 7.25237L3.04 5.8175C3.00619 5.71379 2.99633 5.60523 3.01099 5.49815C3.02565 5.39107 3.06454 5.28762 3.1254 5.19382C3.18625 5.10002 3.26785 5.01775 3.36544 4.95181C3.46303 4.88587 3.57466 4.83758 3.69381 4.80975C3.81296 4.78193 3.93726 4.77512 4.05945 4.78973C4.18164 4.80434 4.29928 4.84008 4.40552 4.89485C4.51175 4.94963 4.60445 5.02235 4.67822 5.10878C4.75198 5.1952 4.80533 5.29361 4.83516 5.39825L5.75503 8.40287L12.0752 11.5927V5.21138L9.56091 3.01275C9.47452 2.93731 9.40597 2.84774 9.35917 2.74913C9.31236 2.65053 9.28823 2.54483 9.28815 2.43807C9.28806 2.33132 9.31202 2.22559 9.35866 2.12693C9.4053 2.02827 9.47371 1.93861 9.55998 1.86306C9.64625 1.78752 9.74869 1.72757 9.86145 1.68665C9.97421 1.64573 10.0951 1.62462 10.2172 1.62455C10.3393 1.62447 10.4602 1.64543 10.573 1.68621C10.6858 1.727 10.7884 1.78681 10.8748 1.86225L12.0752 2.91363V0.8125C12.0752 0.597012 12.1731 0.390349 12.3474 0.237976C12.5216 0.0856024 12.758 0 13.0044 0C13.2508 0 13.4872 0.0856024 13.6614 0.237976C13.8357 0.390349 13.9336 0.597012 13.9336 0.8125V2.91363L15.1359 1.86225C15.3104 1.7099 15.5469 1.6244 15.7935 1.62455C16.0401 1.6247 16.2765 1.7105 16.4507 1.86306C16.6249 2.01563 16.7227 2.22247 16.7225 2.43807C16.7224 2.65368 16.6242 2.8604 16.4498 3.01275L13.9336 5.21138V11.5927L20.2519 8.40287L21.1737 5.39663C21.2377 5.18846 21.3937 5.01108 21.6074 4.90351C21.821 4.79593 22.0748 4.76697 22.3128 4.823C22.5509 4.87903 22.7537 5.01545 22.8767 5.20226C22.9998 5.38907 23.0329 5.61096 22.9688 5.81913L22.5302 7.25237L24.6116 6.20262C24.8249 6.09658 25.0775 6.06861 25.3143 6.12483C25.5511 6.18104 25.7528 6.31688 25.8755 6.50269C25.9982 6.68849 26.0318 6.90919 25.9691 7.11662C25.9064 7.32405 25.7524 7.50137 25.5408 7.60988L23.4594 8.65963L25.1003 9.04475C25.3384 9.10078 25.5412 9.2372 25.6642 9.42401C25.7873 9.61082 25.8204 9.83271 25.7563 10.0409C25.6922 10.249 25.5362 10.4264 25.3226 10.534C25.109 10.6416 24.8552 10.6705 24.6172 10.6145L21.183 9.81013L14.8627 13L21.1811 16.1899L24.6172 15.3855C24.8552 15.3297 25.1089 15.3589 25.3223 15.4666C25.5358 15.5743 25.6916 15.7518 25.7554 15.9599C25.8192 16.1681 25.7859 16.3899 25.6627 16.5766C25.5395 16.7632 25.3365 16.8994 25.0985 16.9552L23.4576 17.3404L25.5389 18.3901C25.7506 18.4986 25.9046 18.676 25.9673 18.8834C26.03 19.0908 25.9963 19.3115 25.8736 19.4973C25.751 19.6831 25.5492 19.819 25.3124 19.8752C25.0756 19.9314 24.823 19.9034 24.6097 19.7974L22.5284 18.7476L22.967 20.1825C23.0008 20.2862 23.0106 20.3948 22.996 20.5018C22.9813 20.6089 22.9424 20.7124 22.8816 20.8062C22.8207 20.9 22.7391 20.9822 22.6415 21.0482C22.5439 21.1141 22.4323 21.1624 22.3131 21.1902C22.194 21.2181 22.0697 21.2249 21.9475 21.2103C21.8253 21.1957 21.7077 21.1599 21.6014 21.1051C21.4952 21.0504 21.4025 20.9776 21.3287 20.8912C21.255 20.8048 21.2016 20.7064 21.1718 20.6018L20.2519 17.5971L13.9336 14.4073V20.7886L16.4479 22.9872C16.6224 23.1396 16.7205 23.3463 16.7207 23.5619C16.7208 23.7775 16.6231 23.9844 16.4488 24.1369C16.2746 24.2895 16.0382 24.3753 15.7916 24.3755C15.5451 24.3756 15.3085 24.2901 15.1341 24.1378L13.9317 23.0864V25.1875C13.9317 25.403 13.8338 25.6097 13.6596 25.762C13.4853 25.9144 13.249 26 13.0026 26H13.0044Z" fill="#484848"/>
</svg>
