<svg width="36" height="26" viewBox="0 0 36 26" fill="none" xmlns="http://www.w3.org/2000/svg">
<path d="M5.625 24.9167C5.625 24.6293 5.74353 24.3538 5.9545 24.1506C6.16548 23.9475 6.45163 23.8333 6.75 23.8333H29.25C29.5484 23.8333 29.8345 23.9475 30.0455 24.1506C30.2565 24.3538 30.375 24.6293 30.375 24.9167C30.375 25.204 30.2565 25.4795 30.0455 25.6827C29.8345 25.8859 29.5484 26 29.25 26H6.75C6.45163 26 6.16548 25.8859 5.9545 25.6827C5.74353 25.4795 5.625 25.204 5.625 24.9167ZM31.4797 2.16667L31.5338 2.16883C31.9542 2.19639 32.3651 2.30158 32.7443 2.47867C33.0173 2.60104 33.2518 2.79093 33.4237 3.029C33.5745 3.24567 33.75 3.62917 33.75 4.33333V17.3138L33.7477 17.3658C33.7189 17.7706 33.6097 18.1663 33.426 18.5315C33.2988 18.7944 33.1017 19.0201 32.8545 19.1858C32.6295 19.331 32.2313 19.5 31.5 19.5H4.52025L4.46625 19.4978C4.04589 19.4701 3.63496 19.3649 3.25575 19.188C2.98277 19.0655 2.74832 18.8757 2.57625 18.6377C2.4255 18.421 2.25 18.0375 2.25 17.3333V4.35283L2.25225 4.30083C2.28087 3.896 2.39011 3.50025 2.574 3.13517C2.70117 2.87229 2.89835 2.64653 3.1455 2.48083C3.3705 2.33567 3.76875 2.16667 4.5 2.16667H31.4797ZM31.5 0H4.5C0 0 0 4.33333 0 4.33333V17.3333C0 21.6667 4.5 21.6667 4.5 21.6667H31.5C36 21.6667 36 17.3333 36 17.3333V4.33333C36 0 31.5 0 31.5 0Z" fill="#484848"/>
</svg>
