<svg width="36" height="24" viewBox="0 0 36 24" fill="none" xmlns="http://www.w3.org/2000/svg">
<path d="M34.7979 7.00211C34.9152 6.89234 35.0065 6.75937 35.0653 6.61236C35.1241 6.46535 35.1492 6.3078 35.1388 6.15055C35.1284 5.99331 35.0827 5.84011 35.0049 5.70151C34.9272 5.5629 34.8191 5.44219 34.6883 5.34769C29.7144 1.86339 23.7207 -0.00914049 17.5712 3.35492e-05C11.1765 3.35492e-05 5.26009 1.98265 0.454156 5.34769C0.323147 5.44202 0.214919 5.5626 0.13693 5.70111C0.0589402 5.83962 0.0130425 5.99278 0.00239876 6.15003C-0.00824497 6.30728 0.0166182 6.46488 0.0752755 6.61198C0.133933 6.75908 0.22499 6.89218 0.342173 7.00211C0.546064 7.19561 0.814608 7.31311 1.09999 7.33369C1.38538 7.35427 1.66909 7.2766 1.9006 7.1145C6.4619 3.94275 11.9461 2.23959 17.5712 2.24789C23.42 2.24789 28.8325 4.05067 33.2395 7.11226C33.7177 7.44494 34.3826 7.40448 34.7979 7.00211Z" fill="#484848"/>
<path d="M29.7701 11.8484C29.8903 11.7367 29.9831 11.6005 30.0419 11.4499C30.1007 11.2992 30.1239 11.1378 30.1098 10.9775C30.0957 10.8171 30.0447 10.6617 29.9605 10.5227C29.8764 10.3837 29.7611 10.2645 29.6231 10.1738C26.0359 7.92861 21.8485 6.73682 17.5709 6.74356C13.1266 6.74356 8.98559 8.00236 5.51879 10.1738C5.38009 10.264 5.26414 10.383 5.17945 10.522C5.09475 10.661 5.04347 10.8166 5.02937 10.9772C5.01527 11.1379 5.03872 11.2995 5.09797 11.4503C5.15723 11.601 5.2508 11.7371 5.37181 11.8484C5.57059 12.0354 5.8294 12.1517 6.1058 12.1782C6.38219 12.2048 6.65974 12.14 6.89291 11.9946C10.0798 10.0278 13.7864 8.98536 17.5709 8.99142C21.3547 8.98579 25.0604 10.0282 28.2466 11.9946C28.7272 12.2913 29.3665 12.2373 29.7701 11.8484V11.8484ZM24.6772 16.7555C25.2044 16.2475 25.1088 15.3956 24.4439 15.0696C22.315 14.0258 19.9596 13.4835 17.5709 13.4871C15.098 13.4871 12.7603 14.0581 10.698 15.0696C10.0331 15.3956 9.93744 16.2475 10.4647 16.7555L10.4997 16.7892C10.873 17.1489 11.4492 17.2163 11.9251 16.9915C13.6824 16.1617 15.614 15.7318 17.5709 15.735C19.596 15.735 21.5137 16.1868 23.2167 16.9938C23.6903 17.2186 24.2666 17.1511 24.6399 16.7892L24.6772 16.7555ZM20.0439 21.2198C20.5012 20.7792 20.5058 20.0509 19.9506 19.7362C19.2308 19.3234 18.4086 19.1059 17.5709 19.1068C16.7333 19.1059 15.9111 19.3234 15.1913 19.7362C14.6361 20.0509 14.6407 20.7792 15.098 21.2198L16.7451 22.8068C16.9638 23.0175 17.2605 23.1358 17.5698 23.1358C17.8791 23.1358 18.1757 23.0175 18.3945 22.8068L20.0439 21.2175V21.2198Z" fill="#484848"/>
</svg>
